# xmcd
#
# Track frame offsets:
# 150
# 13965
# 31562
# 47852
# 64812
# 80257
# 92822
# 111012
# 127267
# 140130
# 155247
# 170477
# 185125
# 200915
#
# Disc length: 2889 seconds
#
#
# Revision: 2
# Processed by: cddbd v1.5.2PL0 Copyright (c) Steve Scherf et al.
# Submitted via: FreeRIP 2.951 
#
DISCID=d30b470e
DTITLE=Cezar and Paulinho - Vol.12
DYEAR=1900
DGENRE=Sertanejo
TTITLE0=Vem Fazer Amor Comigo
TTITLE1=De Saudade a Gente Chora
TTITLE2=Cabine Leito
TTITLE3=Faz de Conta Que Eu Sou Ele
TTITLE4=Primeiro Dia Sem Você
TTITLE5=A Coisa Ficou Bonita
TTITLE6=Outra Vez
TTITLE7=Quando Eu Espero Você
TTITLE8=Recaída
TTITLE9=Falando Com o Ciúmes
TTITLE10=Coração Careta
TTITLE11=Radialista
TTITLE12=Meu Coração Chora
TTITLE13=Dona do Amor
EXTD=
EXTT0=
EXTT1=
EXTT2=
EXTT3=
EXTT4=
EXTT5=
EXTT6=
EXTT7=
EXTT8=
EXTT9=
EXTT10=
EXTT11=
EXTT12=
EXTT13=
PLAYORDER=
